<svg data-v-423bf9ae="" xmlns="http://www.w3.org/2000/svg" viewBox="0 0 409 90" class="iconLeft"><!----><!----><!----><g data-v-423bf9ae="" id="36ca8de1-f290-4fc8-ac13-80dcb35637c9" fill="#2e3034" transform="matrix(5.385996704430117,0,0,5.385996704430117,119.88308904232792,-0.40395177061543563)"><path d="M2.66 6.85L4.48 6.85L4.48 6.85Q4.48 7.14 4.40 7.38L4.40 7.38L4.40 7.38Q4.31 7.62 4.16 7.73L4.16 7.73L2.66 7.73L2.66 12.24L2.66 12.24Q2.66 12.67 2.79 12.85L2.79 12.85L2.79 12.85Q2.91 13.03 3.19 13.03L3.19 13.03L3.19 13.03Q3.61 13.03 4.14 12.59L4.14 12.59L4.41 12.95L4.41 12.95Q4.05 13.43 3.54 13.71L3.54 13.71L3.54 13.71Q3.04 14 2.59 14L2.59 14L2.59 14Q2.02 14 1.70 13.64L1.70 13.64L1.70 13.64Q1.39 13.29 1.39 12.66L1.39 12.66L1.39 7.73L0.15 7.73L0.15 7.73Q0.15 7.35 0.21 7.24L0.21 7.24L0.21 7.24Q0.27 7.13 0.49 7.07L0.49 7.07L0.49 7.07Q1.23 6.87 1.55 6.43L1.55 6.43L1.55 6.43Q1.86 5.99 2.00 5.29L2.00 5.29L2.00 5.29Q2.04 5.07 2.15 5.01L2.15 5.01L2.15 5.01Q2.25 4.96 2.66 4.96L2.66 4.96L2.66 6.85ZM10.39 12.52L10.39 12.52Q9.81 13.33 9.21 13.66L9.21 13.66L9.21 13.66Q8.61 14 7.91 14L7.91 14L7.91 14Q7.24 14 6.66 13.62L6.66 13.62L6.66 13.62Q6.09 13.23 5.75 12.46L5.75 12.46L5.75 12.46Q5.40 11.69 5.40 10.60L5.40 10.60L5.40 10.60Q5.40 9.39 5.84 8.50L5.84 8.50L5.84 8.50Q6.29 7.62 7.11 7.14L7.11 7.14L7.11 7.14Q7.92 6.66 9.03 6.66L9.03 6.66L9.03 6.66Q9.58 6.66 10.57 6.85L10.57 6.85L10.57 6.85Q11.41 6.99 11.83 7.01L11.83 7.01L11.98 7.20L11.82 7.45L11.82 7.45Q11.72 7.59 11.68 7.71L11.68 7.71L11.68 7.71Q11.63 7.83 11.63 7.99L11.63 7.99L11.63 12.57L11.63 12.57Q11.63 13.01 12.05 13.01L12.05 13.01L12.05 13.01Q12.40 13.01 12.75 12.75L12.75 12.75L13.02 13.12L13.02 13.12Q12.66 13.52 12.24 13.76L12.24 13.76L12.24 13.76Q11.82 14 11.47 14L11.47 14L11.47 14Q10.89 14 10.64 13.65L10.64 13.65L10.64 13.65Q10.39 13.30 10.39 12.52L10.39 12.52ZM6.87 10.33L6.87 10.33Q6.87 11.66 7.33 12.29L7.33 12.29L7.33 12.29Q7.78 12.92 8.47 12.92L8.47 12.92L8.47 12.92Q9.03 12.92 9.52 12.61L9.52 12.61L9.52 12.61Q10.01 12.29 10.39 11.65L10.39 11.65L10.39 7.87L10.39 7.87Q9.74 7.43 9.02 7.43L9.02 7.43L9.02 7.43Q7.99 7.43 7.43 8.20L7.43 8.20L7.43 8.20Q6.87 8.96 6.87 10.33L6.87 10.33ZM16.60 13.31L16.60 13.31Q17.18 13.31 17.55 13.00L17.55 13.00L17.55 13.00Q17.92 12.68 17.92 12.18L17.92 12.18L17.92 12.18Q17.92 11.73 17.54 11.45L17.54 11.45L17.54 11.45Q17.15 11.17 16.39 10.85L16.39 10.85L16.39 10.85Q15.71 10.57 15.25 10.30L15.25 10.30L15.25 10.30Q14.80 10.04 14.48 9.61L14.48 9.61L14.48 9.61Q14.15 9.18 14.15 8.55L14.15 8.55L14.15 8.55Q14.15 7.71 14.88 7.19L14.88 7.19L14.88 7.19Q15.60 6.66 16.70 6.66L16.70 6.66L16.70 6.66Q17.70 6.66 18.35 7.06L18.35 7.06L18.35 7.06Q19.01 7.45 19.01 8.11L19.01 8.11L19.01 8.11Q19.01 8.64 18.68 8.98L18.68 8.98L18.68 8.98Q18.35 9.32 17.84 9.32L17.84 9.32L17.84 9.32Q17.54 9.32 17.54 9.14L17.54 9.14L17.54 9.14Q17.54 9.09 17.65 8.86L17.65 8.86L17.65 8.86Q17.75 8.62 17.75 8.36L17.75 8.36L17.75 8.36Q17.75 7.84 17.40 7.59L17.40 7.59L17.40 7.59Q17.05 7.34 16.60 7.34L16.60 7.34L16.60 7.34Q16.03 7.34 15.70 7.62L15.70 7.62L15.70 7.62Q15.37 7.91 15.37 8.36L15.37 8.36L15.37 8.36Q15.37 8.88 15.79 9.19L15.79 9.19L15.79 9.19Q16.20 9.51 17.01 9.84L17.01 9.84L17.01 9.84Q17.68 10.12 18.13 10.37L18.13 10.37L18.13 10.37Q18.58 10.61 18.89 10.99L18.89 10.99L18.89 10.99Q19.19 11.37 19.19 11.90L19.19 11.90L19.19 11.90Q19.19 12.85 18.44 13.43L18.44 13.43L18.44 13.43Q17.68 14 16.42 14L16.42 14L16.42 14Q15.36 14 14.67 13.52L14.67 13.52L14.67 13.52Q13.99 13.05 13.99 12.25L13.99 12.25L13.99 12.25Q13.99 11.77 14.31 11.47L14.31 11.47L14.31 11.47Q14.63 11.16 15.15 11.16L15.15 11.16L15.15 11.16Q15.44 11.16 15.44 11.33L15.44 11.33L15.44 11.33Q15.44 11.37 15.36 11.59L15.36 11.59L15.36 11.59Q15.27 11.80 15.27 12.11L15.27 12.11L15.27 12.11Q15.27 12.70 15.69 13.01L15.69 13.01L15.69 13.01Q16.10 13.31 16.60 13.31L16.60 13.31ZM23.63 10.54L23.51 10.50L23.51 10.50Q23.24 10.43 23.24 10.21L23.24 10.21L23.24 10.21Q23.24 10.09 23.29 10.02L23.29 10.02L23.29 10.02Q23.34 9.94 23.45 9.94L23.45 9.94L23.45 9.94Q23.49 9.94 23.73 10.00L23.73 10.00L23.73 10.00Q23.97 10.07 24.35 10.07L24.35 10.07L24.35 10.07Q24.86 10.07 25.23 9.86L25.23 9.86L25.23 9.86Q25.59 9.65 25.77 9.31L25.77 9.31L25.77 9.31Q25.96 8.97 25.96 8.62L25.96 8.62L25.96 8.62Q25.96 8.20 25.71 7.92L25.71 7.92L25.71 7.92Q25.47 7.63 25.02 7.63L25.02 7.63L25.02 7.63Q24.33 7.63 23.81 8.12L23.81 8.12L23.81 8.12Q23.30 8.61 23.02 9.51L23.02 9.51L23.02 9.51Q22.75 10.40 22.75 11.56L22.75 11.56L22.75 11.56Q22.75 12.24 22.85 12.63L22.85 12.63L22.85 12.63Q22.95 13.03 23.20 13.37L23.20 13.37L23.37 13.59L23.20 13.80L20.75 13.80L20.59 13.37L20.89 13.30L20.89 13.30Q21.24 13.22 21.36 13.00L21.36 13.00L21.36 13.00Q21.48 12.78 21.48 12.25L21.48 12.25L21.48 4.37L21.48 4.37Q21.48 4.20 21.41 4.13L21.41 4.13L21.41 4.13Q21.35 4.06 21.20 4.06L21.20 4.06L20.58 4.06L20.45 3.70L20.45 3.70Q20.86 3.33 21.38 3.09L21.38 3.09L21.38 3.09Q21.91 2.86 22.30 2.86L22.30 2.86L22.30 2.86Q22.50 2.86 22.62 2.98L22.62 2.98L22.62 2.98Q22.75 3.11 22.75 3.30L22.75 3.30L22.75 8.75L22.75 8.75Q23.10 7.83 23.81 7.25L23.81 7.25L23.81 7.25Q24.51 6.66 25.28 6.66L25.28 6.66L25.28 6.66Q26.21 6.66 26.71 7.20L26.71 7.20L26.71 7.20Q27.22 7.73 27.22 8.50L27.22 8.50L27.22 8.50Q27.22 8.99 26.97 9.46L26.97 9.46L26.97 9.46Q26.73 9.93 26.26 10.26L26.26 10.26L26.26 10.26Q25.79 10.58 25.14 10.65L25.14 10.65L26.24 12.73L26.24 12.73Q26.35 12.95 26.49 13.03L26.49 13.03L26.49 13.03Q26.63 13.12 26.82 13.12L26.82 13.12L26.82 13.12Q27.01 13.12 27.20 13.02L27.20 13.02L27.20 13.02Q27.40 12.92 27.57 12.75L27.57 12.75L27.86 13.12L27.86 13.12Q27.22 14 26.36 14L26.36 14L26.36 14Q25.94 14 25.65 13.83L25.65 13.83L25.65 13.83Q25.37 13.66 25.16 13.37L25.16 13.37L25.16 13.37Q24.96 13.08 24.67 12.52L24.67 12.52L23.63 10.54ZM32.35 7.45L32.35 7.45Q31.98 7.45 31.74 7.54L31.74 7.54L31.74 7.54Q31.50 7.63 31.46 7.63L31.46 7.63L31.46 7.63Q31.37 7.63 31.31 7.53L31.31 7.53L31.31 7.53Q31.25 7.43 31.25 7.32L31.25 7.32L31.25 7.32Q31.25 7.15 31.37 7.07L31.37 7.07L31.37 7.07Q32.02 6.66 32.79 6.66L32.79 6.66L32.79 6.66Q33.66 6.66 34.34 7.10L34.34 7.10L34.34 7.10Q35.01 7.53 35.39 8.30L35.39 8.30L35.39 8.30Q35.77 9.07 35.77 10.05L35.77 10.05L35.77 10.05Q35.77 11.17 35.29 12.07L35.29 12.07L35.29 12.07Q34.82 12.98 33.99 13.49L33.99 13.49L33.99 13.49Q33.17 14 32.13 14L32.13 14L32.13 14Q31.32 14 30.62 13.76L30.62 13.76L30.62 13.76Q29.92 13.52 29.51 13.12L29.51 13.12L29.51 4.37L29.51 4.37Q29.51 4.20 29.45 4.13L29.45 4.13L29.45 4.13Q29.39 4.06 29.23 4.06L29.23 4.06L28.62 4.06L28.49 3.70L28.49 3.70Q28.90 3.33 29.41 3.09L29.41 3.09L29.41 3.09Q29.93 2.86 30.34 2.86L30.34 2.86L30.34 2.86Q30.53 2.86 30.66 2.98L30.66 2.98L30.66 2.98Q30.79 3.11 30.79 3.30L30.79 3.30L30.79 12.77L30.79 12.77Q31.12 13.01 31.46 13.11L31.46 13.11L31.46 13.11Q31.81 13.22 32.26 13.22L32.26 13.22L32.26 13.22Q33.19 13.22 33.74 12.44L33.74 12.44L33.74 12.44Q34.29 11.66 34.29 10.33L34.29 10.33L34.29 10.33Q34.29 9.49 34.04 8.83L34.04 8.83L34.04 8.83Q33.80 8.18 33.36 7.81L33.36 7.81L33.36 7.81Q32.93 7.45 32.35 7.45L32.35 7.45ZM42.01 12.52L42.01 12.52Q41.44 13.33 40.84 13.66L40.84 13.66L40.84 13.66Q40.24 14 39.54 14L39.54 14L39.54 14Q38.86 14 38.29 13.62L38.29 13.62L38.29 13.62Q37.72 13.23 37.37 12.46L37.37 12.46L37.37 12.46Q37.03 11.69 37.03 10.60L37.03 10.60L37.03 10.60Q37.03 9.39 37.47 8.50L37.47 8.50L37.47 8.50Q37.91 7.62 38.73 7.14L38.73 7.14L38.73 7.14Q39.55 6.66 40.66 6.66L40.66 6.66L40.66 6.66Q41.20 6.66 42.20 6.85L42.20 6.85L42.20 6.85Q43.04 6.99 43.46 7.01L43.46 7.01L43.61 7.20L43.44 7.45L43.44 7.45Q43.34 7.59 43.30 7.71L43.30 7.71L43.30 7.71Q43.26 7.83 43.26 7.99L43.26 7.99L43.26 12.57L43.26 12.57Q43.26 13.01 43.68 13.01L43.68 13.01L43.68 13.01Q44.03 13.01 44.38 12.75L44.38 12.75L44.65 13.12L44.65 13.12Q44.28 13.52 43.86 13.76L43.86 13.76L43.86 13.76Q43.44 14 43.09 14L43.09 14L43.09 14Q42.52 14 42.27 13.65L42.27 13.65L42.27 13.65Q42.01 13.30 42.01 12.52L42.01 12.52ZM38.50 10.33L38.50 10.33Q38.50 11.66 38.95 12.29L38.95 12.29L38.95 12.29Q39.41 12.92 40.10 12.92L40.10 12.92L40.10 12.92Q40.66 12.92 41.15 12.61L41.15 12.61L41.15 12.61Q41.64 12.29 42.01 11.65L42.01 11.65L42.01 7.87L42.01 7.87Q41.37 7.43 40.64 7.43L40.64 7.43L40.64 7.43Q39.62 7.43 39.06 8.20L39.06 8.20L39.06 8.20Q38.50 8.96 38.50 10.33L38.50 10.33ZM47.71 11.56L47.71 11.56Q47.71 12.22 47.81 12.61L47.81 12.61L47.81 12.61Q47.91 13.01 48.16 13.37L48.16 13.37L48.33 13.59L48.16 13.80L45.71 13.80L45.56 13.37L45.85 13.30L45.85 13.30Q46.20 13.22 46.32 13.00L46.32 13.00L46.32 13.00Q46.44 12.78 46.44 12.25L46.44 12.25L46.44 8.32L46.44 8.32Q46.44 8.15 46.37 8.08L46.37 8.08L46.37 8.08Q46.31 8.01 46.16 8.01L46.16 8.01L45.54 8.01L45.42 7.64L45.42 7.64Q45.82 7.28 46.35 7.04L46.35 7.04L46.35 7.04Q46.87 6.80 47.26 6.80L47.26 6.80L47.26 6.80Q47.46 6.80 47.59 6.93L47.59 6.93L47.59 6.93Q47.71 7.06 47.71 7.25L47.71 7.25L47.71 8.75L47.71 8.75Q48.08 7.84 48.80 7.25L48.80 7.25L48.80 7.25Q49.53 6.66 50.33 6.66L50.33 6.66L50.33 6.66Q51.31 6.66 51.76 7.27L51.76 7.27L51.76 7.27Q52.21 7.87 52.21 9.18L52.21 9.18L52.21 12.57L52.21 12.57Q52.21 13.05 52.63 13.05L52.63 13.05L52.63 13.05Q52.95 13.05 53.33 12.75L53.33 12.75L53.59 13.12L53.59 13.12Q53.23 13.52 52.81 13.76L52.81 13.76L52.81 13.76Q52.39 14 52.02 14L52.02 14L52.02 14Q51.45 14 51.20 13.65L51.20 13.65L51.20 13.65Q50.95 13.30 50.95 12.52L50.95 12.52L50.95 9.18L50.95 9.18Q50.95 7.76 49.74 7.76L49.74 7.76L49.74 7.76Q49.14 7.76 48.68 8.23L48.68 8.23L48.68 8.23Q48.23 8.71 47.97 9.58L47.97 9.58L47.97 9.58Q47.71 10.44 47.71 11.56L47.71 11.56Z"></path></g><!----><g data-v-423bf9ae="" id="d5a28010-2760-4800-b035-afa4ef272851" transform="matrix(1.407635719271868,0,0,1.407635719271868,-19.14818645726787,-25.35048712196958)" stroke="none" fill="#488eff"><path d="M26.119 18.032c-1.239.028-2.366 1.189-2.337 2.463v5.578h-7.153c-1.295 0-2.394 1.387-2.394 2.407v51.083c0 1.273 1.126 2.406 2.394 2.406h66.743c1.268 0 2.395-1.133 2.395-2.406V28.48c0-1.274-1.127-2.407-2.395-2.407H76.22v-5.578c.027-1.303-1.127-2.463-2.395-2.463-1.268.028-2.393 1.189-2.365 2.463v5.578H28.541v-5.578c.028-1.303-1.126-2.463-2.422-2.463zm-7.125 12.826h17.488V43.09H18.994V30.858zm22.276 0h17.46V43.09H41.27V30.858zm22.248 0h17.488V43.09H63.518V30.858zM18.994 47.876h17.488v12.26H18.994v-12.26zm22.276 0h17.46v12.26H41.27v-12.26zm22.248 0h17.488v12.26H63.518v-12.26zM18.994 64.922h17.488v12.262H18.994V64.922zm22.276 0h17.46v12.262H41.27V64.922zm22.248 0h17.488v12.262H63.518V64.922z"></path></g><!----></svg>